<svg viewBox="0 0 1219 454.69510869565215" xmlns="http://www.w3.org/2000/svg" data-name="Layer 1" id="Layer_1" style="max-height: 500px" width="1219" height="454.69510869565215">
  <defs>
    <style>
      .cls-1 {
        fill: #3fbaeb;
      }

      .cls-2 {
        fill: none;
        stroke: #3fbaeb;
        stroke-miterlimit: 10;
        stroke-width: 26px;
      }
    </style>
  </defs>
  <g>
    <path d="M228.58,257.73l1.18,3.63-3.53,9.13c-16.24,12.34-35.06,18.51-56.47,18.51-15.69,0-28.96-3.15-39.82-9.44-10.86-6.29-18.9-15.17-24.12-26.64-5.22-11.46-7.82-25.03-7.82-40.71,0-13.09,1.67-25.26,5-36.52,3.33-11.26,8.04-21.05,14.12-29.39,6.08-8.34,13.33-15.71,21.76-22.14,8.43-6.42,16.94-11.34,25.53-14.76,8.59-3.42,18.53-5.13,29.82-5.13,17.72,0,33.92,3.25,48.59,9.75l.47,1.38c-2.35,7.25-4.31,18.97-5.88,35.14l-.94,1h-4.94l-.94-1c0-11.01-.12-17.51-.35-19.51-9.8-9-23.92-13.51-42.35-13.51-7.37,0-14.53.96-21.47,2.88-6.94,1.92-13.1,5.07-18.47,9.44-5.37,4.38-10.16,10.32-14.35,17.82-4.2,7.5-7.63,16.24-10.29,26.2-2.67,9.96-4,21.07-4,33.33,0,22.68,5.24,39.73,15.71,51.15,10.47,11.42,24.61,17.13,42.41,17.13s34.47-5.92,51.17-17.76Z" class="cls-1"/>
    <path d="M297.1,99.65l3.27,2.4c-3.66,14.98-12.13,52.97-25.39,113.98l.92.5c16.14-20.45,30.56-34.27,43.25-41.46,12.69-7.2,22.4-10.79,29.12-10.79,2.18,0,3.93.74,5.23,2.21,1.31,1.47,1.96,3.26,1.96,5.36,0,3.03-1.35,9.76-4.06,20.2-3.49,13.13-7.26,28.19-11.32,45.19-4.06,17-6.09,27.18-6.09,30.55,0,1.43.37,2.46,1.11,3.09.74.63,1.46.95,2.16.95,1.92,0,4.69-1.14,8.31-3.41,3.62-2.27,8.22-5.38,13.8-9.34l1.31.38,1.57,3.28-.26,1.39c-7.24,5.72-15.38,11.34-24.41,16.85-9.03,5.51-14.98,8.27-17.86,8.27-1.92,0-3.47-.97-4.65-2.9-1.18-1.93-1.77-4.5-1.77-7.7,0-2.19.13-3.93.39-5.24.26-1.3,1.74-7.59,4.45-18.87l7.46-31.3c5.15-20.36,7.72-32.78,7.72-37.24,0-3.03-1.75-4.54-5.23-4.54-2.36,0-4.76.55-7.2,1.64-5.32,2.52-11.91,7.07-19.76,13.63-6.11,5.22-11.82,11.49-17.14,18.81-5.32,7.32-9.47,14.69-12.43,22.09-2.27,5.89-4.36,13.21-6.28,21.96l-4.84,24.99c-10.64,2.1-16.71,3.49-18.19,4.17l-1.7-1.77c13.17-48.22,23.12-92.56,29.84-133.04l4.32-25.75c.7-3.11,1.05-5.76,1.05-7.95,0-1.77-.59-3.07-1.77-3.91-1.18-.84-3.69-1.26-7.52-1.26l-10.99-.13-1.05-1.01.52-3.16.92-1.14c16.4-2.52,30.14-5.85,41.22-9.97Z" class="cls-1"/>
    <path d="M481.09,260.59l.92,3.41-.52,1.51c-18.32,15.23-30.8,22.85-37.43,22.85-4.36,0-6.54-2.69-6.54-8.08,0-2.61.28-5.91.85-9.91.57-4,1.42-8.39,2.55-13.19l3.27-13.51,1.96-7.45-.79-.38c-13,17.84-25.15,31.22-36.44,40.14-11.3,8.92-19.22,13.38-23.75,13.38-6.11,0-9.16-7.19-9.16-21.58,0-9,1.42-19.23,4.25-30.67,2.83-11.44,6.3-22.05,10.4-31.81,4.1-9.76,7.39-16.18,9.88-19.25,2.49-3.07,6.63-6.58,12.43-10.54,5.8-3.95,11.23-6.98,16.29-9.09,5.06-2.1,10.69-3.16,16.88-3.16,7.59,0,15.66,1.51,24.21,4.54l8.37-4.8,2.88,2.27c-.26,1.26-2.09,7.57-5.5,18.93l-6.02,21.46-3.27,12.5c-2.36,8.92-4.54,18.24-6.54,27.96-2.01,9.72-3.01,16.35-3.01,19.88s1.18,5.05,3.53,5.05c1.48,0,3.45-.63,5.89-1.89,2.44-1.26,6.85-4.25,13.22-8.96l1.18.38ZM458.98,180.18c-6.63-2.95-13.79-4.42-21.46-4.42-6.37,0-12.04,1.14-17.01,3.41-1.83,1.35-3.71,3.72-5.63,7.13-1.92,3.41-4.62,9.76-8.11,19.06-3.49,9.3-6.33,19.23-8.51,29.79-2.18,10.56-3.27,18.96-3.27,25.18,0,4.63.41,7.62,1.24,8.96.83,1.35,2.07,2.02,3.73,2.02,3.14,0,9.29-4.08,18.45-12.24,9.16-8.16,16.9-17.63,23.23-28.4,6.32-10.77,11.54-25.16,15.64-43.17l1.7-7.32Z" class="cls-1"/>
    <path d="M616.8,99.65l3.27,2.4c-4.1,16.66-8.77,37.07-14,61.22l-15.44,71.19c-2.44,12.12-3.97,20.7-4.58,25.75-.18,1.6-.26,3.24-.26,4.92,0,4.04,1.22,6.06,3.66,6.06,3.31,0,10.25-4.04,20.81-12.12l1.44.38,1.31,2.9-.39,1.64c-8.11,6.82-16.1,12.64-23.95,17.48-7.85,4.84-13.44,7.26-16.75,7.26-1.83,0-3.34-.95-4.51-2.84-1.18-1.89-1.77-4.73-1.77-8.52,0-3.11.63-7.8,1.9-14.07,1.26-6.27,3.6-16.26,7-29.98l-.65-.13c-9.42,15.32-20.65,28.4-33.7,39.26-13.04,10.86-23.23,16.28-30.56,16.28-2.62,0-4.84-.88-6.67-2.65-1.83-1.77-3.32-5.01-4.45-9.72-1.13-4.71-1.7-9.68-1.7-14.89,0-7.15,1.22-16.28,3.66-27.39,2.44-11.11,5.54-20.72,9.29-28.84,3.75-8.12,7.48-14.24,11.19-18.37,3.71-4.12,8.66-8.2,14.85-12.24,6.19-4.04,11.54-6.94,16.03-8.71,4.49-1.77,9.09-2.65,13.81-2.65,5.06,0,12.39,1.05,21.98,3.16l6.8-38.25c.7-3.2,1.05-5.89,1.05-8.08,0-1.85-.68-3.16-2.03-3.91-1.35-.76-3.77-1.14-7.26-1.14l-10.99-.13-1.05-1.01.39-3.16,1.05-1.14c16.31-2.52,30.05-5.85,41.22-9.97ZM585.13,180.94c-8.2-4.12-16.66-6.18-25.39-6.18-5.41,0-9.79.57-13.15,1.7-3.36,1.14-5.89,2.55-7.59,4.23-1.7,1.68-3.93,5.32-6.67,10.92-2.75,5.6-5.43,12.46-8.05,20.58-2.62,8.12-4.65,16.12-6.09,23.98-1.44,7.87-2.16,15.46-2.16,22.78,0,4.54.48,7.7,1.44,9.47.96,1.77,2.44,2.65,4.45,2.65,3.31,0,8.03-1.85,14.13-5.55,9.25-5.72,17.54-13.38,24.86-22.97,7.33-9.59,12.82-19.82,16.49-30.67,1.66-4.96,4.23-15.27,7.72-30.93Z" class="cls-1"/>
    <path d="M629.36,197.1l-.79-1.01,10.6-29.03c3.75-1.26,7.46-1.89,11.12-1.89,3.05,0,8.59.38,16.62,1.14,7.07.67,12.26,1.01,15.57,1.01,5.23,0,9.99-.71,14.26-2.15l2.36,3.54c-23.82,28.19-35.72,55.16-35.72,80.91,0,17.67,5.02,26.51,15.05,26.51,7.33,0,16.03-7.72,26.11-23.16,10.08-15.44,18.52-43.23,25.32-83.37,6.54-.92,13.13-2.61,19.76-5.05l1.83,1.51c-12.91,40.22-19.37,69.26-19.37,87.1,0,6.65,1.48,12.1,4.45,16.35,2.97,4.25,7.11,6.37,12.43,6.37,11.69,0,22.09-8.54,31.21-25.62,9.12-17.08,13.68-33.87,13.68-50.36,0-12.37-4.36-18.55-13.09-18.55-2.18,0-4.45.55-6.8,1.64l-1.44-.25-2.09-2.27v-1.39c5.23-4.71,9.81-9.21,13.74-13.51,2.53-.84,5.02-1.26,7.46-1.26,12.65,0,18.97,8.46,18.97,25.37,0,13.63-4.08,28.57-12.23,44.81-8.16,16.24-18.02,29.52-29.58,39.82-11.56,10.31-22.14,15.46-31.73,15.46-6.98,0-12.43-2.4-16.36-7.2-3.93-4.8-5.89-10.81-5.89-18.05s.87-15.4,2.62-23.73l-8.77,15.27c-5.93,10.35-12.59,18.55-19.96,24.61-7.37,6.06-14.29,9.09-20.74,9.09-7.24,0-13.04-3.09-17.4-9.28-4.36-6.19-6.54-14.24-6.54-24.17,0-11.44,2.73-22.99,8.18-34.65,5.45-11.65,16.03-25.81,31.73-42.47-1.92.67-8.24,1.01-18.97,1.01l-5.63-.25c-5.76,0-11.21.46-16.36,1.39-1.48,2.1-4.41,7.11-8.77,15.02l-1.31.76h-3.53Z" class="cls-1"/>
    <path d="M828.92,191.29l-1.31-2.9.39-1.64c11.86-8.25,21-14.03,27.42-17.36,6.41-3.32,11.45-4.99,15.11-4.99s5.36,2.48,5.36,7.45c0,2.27-.46,5.49-1.37,9.66-.92,4.17-3.12,12.56-6.61,25.18-9.51,34-14.26,54.11-14.26,60.34,0,3.37,1.22,5.05,3.66,5.05,3.75,0,10.55-3.58,20.41-10.73l1.31.38,1.44,3.28-.26,1.51c-6.11,4.54-12.39,8.92-18.84,13.13-6.46,4.21-11.06,6.88-13.81,8.01-2.75,1.14-5.04,1.7-6.87,1.7-2.62,0-4.67-1.09-6.15-3.28-1.48-2.19-2.22-4.75-2.22-7.7,0-3.79.54-7.85,1.64-12.18,1.09-4.33,2.42-9.15,3.99-14.45,5.67-19.52,9.7-34.75,12.1-45.69,2.4-10.94,3.6-17.63,3.6-20.07,0-2.86-1-4.29-3.01-4.29-1.31,0-2.57.32-3.79.95-1.22.63-6.72,3.68-16.49,9.15l-1.44-.5ZM863.07,120.86c0-4.46,1.46-8.39,4.38-11.8,2.92-3.41,6.48-5.11,10.67-5.11,2.96,0,5.36.88,7.2,2.65,1.83,1.77,2.75,4.29,2.75,7.57,0,4.54-1.35,8.61-4.06,12.18-2.71,3.58-6.11,5.36-10.21,5.36-3.06,0-5.61-1.01-7.66-3.03-2.05-2.02-3.08-4.63-3.08-7.83Z" class="cls-1"/>
    <path d="M987.13,258.06l1.44,3.53-.39,1.51c-10.56,8.5-20.26,15.04-29.12,19.63-8.86,4.59-17.34,6.88-25.45,6.88-10.73,0-18.84-3.22-24.34-9.66-5.5-6.44-8.24-15.97-8.24-28.59,0-7.74.96-15.97,2.88-24.68,1.92-8.71,4.49-16.3,7.72-22.78,3.23-6.48,6.61-11.61,10.14-15.4,3.53-3.79,8.83-7.83,15.9-12.12,9.51-5.72,16.88-9.47,22.12-11.23,5.23-1.77,10.25-2.65,15.05-2.65,8.55,0,15.92,2.06,22.12,6.19l.39,1.64c-2.53,10.01-4.45,20.15-5.76,30.42l-1.05,1.01h-4.06l-1.05-1.01v-8.46c.09-1.68.13-3.11.13-4.29,0-2.78-.52-4.92-1.57-6.44-1.05-1.52-3.49-2.9-7.33-4.17-3.84-1.26-8.16-1.89-12.96-1.89-9.16,0-16.47,2.29-21.92,6.88-5.45,4.59-10.34,13.76-14.66,27.52s-6.48,25.9-6.48,36.42,2.14,18.16,6.41,22.91c4.27,4.75,9.77,7.13,16.49,7.13,5.5,0,11.25-1.22,17.27-3.66,6.02-2.44,14.35-7.45,25-15.02l1.31.38Z" class="cls-1"/>
    <path d="M1060.8,99.65l3.27,2.4c-3.06,12.12-7.11,29.83-12.17,53.14l-7.59,34.84c-3.14,14.39-6.02,26.55-8.64,36.48,6.8-9.42,15.46-19.86,25.98-31.3,10.51-11.44,20-19.8,28.46-25.06,8.46-5.26,15.75-7.89,21.85-7.89,2.44,0,5.45.67,9.03,2.02l-4.45,17.67c-3.84-1.18-7.5-1.77-10.99-1.77-4.71,0-9.38.93-14,2.78-4.62,1.85-9.4,4.69-14.33,8.52-4.93,3.83-10.32,8.61-16.16,14.33,2.96,9.01,6.96,19.57,11.97,31.68,5.02,12.12,8.83,20.62,11.45,25.5,2.62,4.88,4.67,7.78,6.15,8.71,1.48.93,2.75,1.39,3.79,1.39,2.44,0,6.94-1.93,13.48-5.81l4.06-2.4,1.44.38,1.31,3.03-.39,1.51c-12.3,8.75-20.39,14.18-24.27,16.28-3.88,2.1-6.74,3.16-8.57,3.16-.87,0-1.81-.27-2.81-.82-1-.55-2.42-2.1-4.25-4.67-1.83-2.57-4.41-7.59-7.72-15.08-3.32-7.49-5.89-13.61-7.72-18.37-1.83-4.75-5.54-14.75-11.12-29.98-5.32,6.31-8.72,10.54-10.21,12.69-1.48,2.15-2.73,4.38-3.73,6.69-1,2.32-2.12,5.79-3.34,10.41-1.22,4.63-2.36,9.97-3.4,16.03l-3.14,17.92-17.8,4.54-2.23-1.64,6.41-23.98c2.7-10.18,6.69-27.62,11.97-52.32,5.28-24.7,9.05-43.49,11.32-56.36l4.84-26.38c.61-3.28.92-5.85.92-7.7s-.59-3.07-1.77-3.91c-1.18-.84-3.69-1.26-7.52-1.26l-10.99-.13-1.05-1.01.39-3.16,1.05-1.14c16.23-2.44,29.97-5.76,41.22-9.97Z" class="cls-1"/>
  </g>
  <rect ry="17.33" rx="17.33" height="366" width="1193" y="13" x="13" class="cls-2"/>
  <g>
    <path d="M5.85,447.8l11.18-46.76h38.54l-1.27,5.33h-31.4l-3.5,14.55h30.6l-1.27,5.33h-30.6l-3.86,16.27h33.62l-1.27,5.29H5.85Z" class="cls-1"/>
    <path d="M55.36,436.22l6.59-.35c0,1.66.29,3.07.87,4.24.58,1.17,1.66,2.13,3.22,2.87s3.39,1.12,5.48,1.12c2.91,0,5.1-.51,6.56-1.53,1.46-1.02,2.19-2.22,2.19-3.6,0-1-.44-1.95-1.31-2.84-.9-.89-3.09-1.99-6.58-3.3-3.49-1.31-5.71-2.23-6.69-2.76-1.63-.87-2.85-1.9-3.68-3.08-.83-1.18-1.24-2.54-1.24-4.07,0-2.68,1.21-4.98,3.64-6.89,2.43-1.91,5.83-2.87,10.2-2.87,4.86,0,8.55.98,11.09,2.95,2.54,1.97,3.86,4.56,3.95,7.77l-6.45.38c-.1-2.04-.92-3.66-2.48-4.85-1.55-1.19-3.75-1.79-6.59-1.79-2.28,0-4.06.46-5.32,1.37-1.26.91-1.89,1.9-1.89,2.97s.55,2,1.64,2.81c.73.55,2.61,1.4,5.65,2.55,5.05,1.91,8.23,3.42,9.54,4.53,2.09,1.76,3.13,3.91,3.13,6.44,0,1.68-.59,3.33-1.77,4.94-1.18,1.62-2.98,2.91-5.39,3.88-2.42.97-5.26,1.45-8.54,1.45-4.47,0-8.27-.97-11.4-2.9-3.13-1.94-4.61-5.08-4.44-9.44Z" class="cls-1"/>
    <path d="M107.45,443.11l-1.09,4.72c-1.58.36-3.11.54-4.59.54-2.62,0-4.71-.56-6.27-1.69-1.17-.85-1.75-2.01-1.75-3.48,0-.74.32-2.46.95-5.14l4.7-19.68h-5.21l1.06-4.47h5.21l2-8.32,7.54-3.99-2.95,12.31h6.48l-1.09,4.47h-6.45l-4.48,18.72c-.56,2.38-.84,3.81-.84,4.27,0,.68.22,1.2.67,1.56.45.36,1.18.54,2.2.54,1.46,0,2.76-.13,3.9-.38Z" class="cls-1"/>
    <path d="M138.86,443.59c-2.28,1.72-4.48,2.98-6.59,3.78-2.11.8-4.37,1.2-6.78,1.2-3.57,0-6.45-.92-8.63-2.76-2.19-1.84-3.28-4.2-3.28-7.07,0-1.89.49-3.57,1.48-5.02.98-1.46,2.29-2.63,3.92-3.51,1.63-.88,3.62-1.52,5.97-1.9,1.48-.25,4.29-.46,8.43-.61s7.11-.53,8.91-1.15c.51-1.57.76-2.88.76-3.92,0-1.34-.56-2.39-1.68-3.16-1.53-1.06-3.76-1.59-6.7-1.59-2.77,0-5.03.54-6.79,1.61-1.76,1.07-3.04,2.6-3.84,4.58l-6.67-.51c1.36-3.36,3.52-5.93,6.47-7.72,2.95-1.79,6.67-2.68,11.17-2.68,4.78,0,8.57,1,11.37,3,2.14,1.49,3.21,3.42,3.21,5.8,0,1.81-.3,3.9-.91,6.28l-2.15,8.42c-.68,2.68-1.02,4.86-1.02,6.54,0,1.06.27,2.59.8,4.59h-6.67c-.36-1.11-.62-2.51-.77-4.21ZM141.3,430.64c-.92.32-1.91.56-2.97.73-1.06.17-2.82.35-5.3.54-3.84.3-6.55.68-8.12,1.13-1.58.46-2.77,1.19-3.57,2.18-.8,1-1.2,2.11-1.2,3.32,0,1.62.64,2.95,1.91,3.99,1.27,1.04,3.09,1.56,5.45,1.56,2.19,0,4.29-.5,6.3-1.51s3.61-2.42,4.77-4.23,2.08-4.38,2.73-7.72Z" class="cls-1"/>
    <path d="M154.27,447.8l11.15-46.76h6.59l-3.97,16.71c2.09-1.68,3.98-2.87,5.68-3.56,1.7-.69,3.47-1.04,5.32-1.04,3.62,0,6.64,1.18,9.05,3.54,2.42,2.36,3.62,5.79,3.62,10.3,0,3-.49,5.74-1.46,8.23s-2.17,4.58-3.61,6.27c-1.43,1.69-2.91,3.04-4.44,4.05-1.53,1.01-3.1,1.77-4.7,2.26-1.6.5-3.15.75-4.63.75-2.55,0-4.8-.59-6.74-1.77-1.94-1.18-3.46-2.98-4.55-5.41l-1.53,6.41h-5.79ZM164.03,433.89l-.04,1.08c0,2.89.79,5.09,2.37,6.6,1.58,1.51,3.54,2.26,5.9,2.26s4.43-.71,6.36-2.12c1.93-1.41,3.51-3.62,4.75-6.62,1.24-3,1.86-5.76,1.86-8.29,0-2.85-.78-5.06-2.35-6.63-1.57-1.57-3.5-2.36-5.81-2.36s-4.57.8-6.56,2.41c-1.99,1.61-3.66,4.08-4.99,7.42-1,2.49-1.49,4.57-1.49,6.25Z" class="cls-1"/>
    <path d="M195.25,447.8l11.15-46.76h6.59l-11.15,46.76h-6.59Z" class="cls-1"/>
    <path d="M212.08,447.8l8.09-33.88h6.59l-8.09,33.88h-6.59ZM221.7,407.58l1.57-6.54h6.56l-1.57,6.54h-6.56Z" class="cls-1"/>
    <path d="M229.53,436.22l6.59-.35c0,1.66.29,3.07.87,4.24.58,1.17,1.66,2.13,3.22,2.87s3.39,1.12,5.48,1.12c2.91,0,5.1-.51,6.56-1.53,1.46-1.02,2.19-2.22,2.19-3.6,0-1-.44-1.95-1.31-2.84-.9-.89-3.09-1.99-6.58-3.3-3.49-1.31-5.71-2.23-6.69-2.76-1.63-.87-2.85-1.9-3.68-3.08-.83-1.18-1.24-2.54-1.24-4.07,0-2.68,1.21-4.98,3.64-6.89,2.43-1.91,5.83-2.87,10.2-2.87,4.86,0,8.55.98,11.09,2.95,2.54,1.97,3.86,4.56,3.95,7.77l-6.45.38c-.1-2.04-.92-3.66-2.48-4.85-1.55-1.19-3.75-1.79-6.59-1.79-2.28,0-4.06.46-5.32,1.37s-1.89,1.9-1.89,2.97.55,2,1.64,2.81c.73.55,2.61,1.4,5.65,2.55,5.05,1.91,8.23,3.42,9.54,4.53,2.09,1.76,3.13,3.91,3.13,6.44,0,1.68-.59,3.33-1.77,4.94-1.18,1.62-2.98,2.91-5.39,3.88-2.42.97-5.26,1.45-8.54,1.45-4.47,0-8.27-.97-11.4-2.9-3.13-1.94-4.61-5.08-4.44-9.44Z" class="cls-1"/>
    <path d="M266.21,447.8l11.15-46.76h6.59l-4.26,17.96c2.45-2.08,4.74-3.58,6.85-4.48,2.11-.9,4.29-1.36,6.52-1.36,3.21,0,5.7.74,7.47,2.22,1.77,1.48,2.66,3.43,2.66,5.85,0,1.19-.39,3.38-1.17,6.57l-4.77,20h-6.59l4.92-20.51c.7-2.98,1.06-4.85,1.06-5.61,0-1.11-.44-2.01-1.31-2.71-.88-.7-2.14-1.05-3.79-1.05-2.38,0-4.65.55-6.81,1.64-2.16,1.1-3.86,2.59-5.08,4.5s-2.35,4.97-3.37,9.2l-3.46,14.54h-6.59Z" class="cls-1"/>
    <path d="M336.12,436.29l6.41.57c-.92,2.79-3.04,5.43-6.36,7.94s-7.27,3.76-11.86,3.76c-2.87,0-5.5-.58-7.89-1.74-2.39-1.16-4.21-2.84-5.46-5.06s-1.88-4.73-1.88-7.56c0-3.7.98-7.29,2.93-10.77s4.49-6.06,7.6-7.75c3.11-1.69,6.47-2.54,10.09-2.54,4.61,0,8.3,1.25,11.06,3.76s4.13,5.93,4.13,10.27c0,1.66-.17,3.36-.51,5.1h-28.49c-.1.66-.15,1.25-.15,1.79,0,3.17.83,5.59,2.5,7.26,1.66,1.67,3.7,2.5,6.1,2.5,2.26,0,4.48-.65,6.67-1.95,2.19-1.3,3.89-3.17,5.1-5.61ZM316.96,427.9h21.71c.02-.6.04-1.02.04-1.28,0-2.89-.83-5.11-2.48-6.65-1.65-1.54-3.78-2.31-6.38-2.31-2.82,0-5.39.85-7.71,2.55-2.32,1.7-4.05,4.26-5.19,7.69Z" class="cls-1"/>
    <path d="M375.29,442.89c-3.76,3.79-7.7,5.68-11.8,5.68-3.67,0-6.72-1.19-9.16-3.56s-3.66-5.81-3.66-10.32c0-4.12.96-7.89,2.9-11.31,1.93-3.41,4.35-5.97,7.25-7.67s5.81-2.55,8.72-2.55c4.81,0,8.44,2.03,10.89,6.09l4.37-18.21h6.56l-11.15,46.76h-6.08l1.17-4.91ZM357.22,433.61c0,2.36.27,4.22.8,5.58.53,1.36,1.45,2.49,2.73,3.4,1.29.9,2.83,1.36,4.63,1.36,2.99,0,5.69-1.36,8.12-4.08,3.25-3.62,4.88-8.08,4.88-13.4,0-2.68-.8-4.77-2.4-6.28-1.6-1.51-3.62-2.26-6.05-2.26-1.58,0-3.02.31-4.32.92-1.3.62-2.59,1.67-3.86,3.14s-2.35,3.35-3.22,5.63c-.88,2.28-1.31,4.27-1.31,6Z" class="cls-1"/>
    <path d="M426.91,447.8l8.45-35.31c-3.64,2.51-8.77,4.52-15.37,6.03l1.24-5.23c3.28-1.15,6.51-2.65,9.71-4.5,3.19-1.85,5.59-3.47,7.2-4.85.97-.85,1.89-1.88,2.77-3.09h3.83l-11.18,46.95h-6.63Z" class="cls-1"/>
    <path d="M455.47,437.08l6.19-.54c.41,2.62,1.26,4.48,2.55,5.58,1.29,1.11,2.82,1.66,4.59,1.66,2.53,0,4.87-.96,7.03-2.87,3.18-2.81,5.52-6.84,7.03-12.09-2.21,1.45-4.17,2.48-5.88,3.09-1.71.62-3.47.92-5.26.92-3.25,0-6.17-.96-8.74-2.87-3.4-2.49-5.1-6.06-5.1-10.72,0-5.27,1.97-9.79,5.9-13.56,3.38-3.23,7.52-4.85,12.42-4.85,4.42,0,8.09,1.43,11,4.29s4.37,6.91,4.37,12.14-.97,10.1-2.91,15.06c-2.31,5.83-5.43,10.12-9.36,12.89-3.21,2.25-6.81,3.38-10.82,3.38-3.69,0-6.71-1-9.05-3.01s-3.66-4.84-3.95-8.5ZM464.25,418.58c0,2.93.89,5.27,2.68,7.02,1.79,1.74,3.9,2.62,6.36,2.62,1.82,0,3.63-.54,5.43-1.63,1.8-1.08,3.34-2.71,4.63-4.86,1.29-2.16,1.93-4.37,1.93-6.65,0-1.79-.43-3.44-1.28-4.98-.85-1.53-2.01-2.68-3.48-3.46-1.47-.78-2.96-1.16-4.46-1.16s-2.89.34-4.3,1.02c-1.41.68-2.71,1.68-3.92,3-1.2,1.32-2.1,2.83-2.7,4.55s-.89,3.23-.89,4.54Z" class="cls-1"/>
    <path d="M514.23,447.8l2.88-11.93h-21.79l1.38-5.71,29.91-29.12h5.39l-7.1,29.73h7.5l-1.2,5.1h-7.5l-2.88,11.93h-6.59ZM518.31,430.77l4.66-19.52-19.89,19.52h15.23Z" class="cls-1"/>
    <path d="M537.8,447.8c.68-2.79,1.62-5.12,2.82-7,1.2-1.88,2.8-3.67,4.79-5.36s5.83-4.52,11.51-8.5c3.45-2.4,5.8-4.18,7.07-5.33,1.82-1.66,3.15-3.29,3.97-4.88.56-1.08.84-2.26.84-3.54,0-2.15-.87-3.97-2.6-5.47-1.74-1.5-3.87-2.25-6.39-2.25s-4.69.76-6.56,2.28c-1.87,1.52-3.21,3.96-4.01,7.32l-6.45-.83c.63-4.15,2.47-7.42,5.52-9.81,3.05-2.39,6.84-3.59,11.38-3.59,3.04,0,5.79.55,8.25,1.66,2.46,1.11,4.32,2.66,5.56,4.66,1.24,2,1.86,4.06,1.86,6.19,0,3.11-1.26,6.09-3.79,8.96-1.55,1.79-6.12,5.31-13.7,10.56-3.25,2.25-5.68,4.1-7.27,5.55-1.59,1.45-2.79,2.81-3.59,4.08h23.9l-1.28,5.29h-31.84Z" class="cls-1"/>
  </g>
</svg>